<svg width="64" height="63" viewBox="0 0 64 63" fill="none" xmlns="http://www.w3.org/2000/svg">
<g filter="url(#filter0_f_4_34911)">
<path d="M17.0645 46.9932C16.1355 43.2269 13.9677 41.6576 13 41.3438H49C47.4516 43.07 45.5161 45.4867 45.5161 46.9932C45.5161 48.4997 45.9032 51.0734 46.6774 52.1719H15.9032C16.6774 52.0149 17.9935 50.7595 17.0645 46.9932Z" fill="url(#paint0_linear_4_34911)"/>
</g>
<g filter="url(#filter1_d_4_34911)">
<path fill-rule="evenodd" clip-rule="evenodd" d="M49 25.1135C49 25.1095 49 25.1055 49 25.1016C49 18.3059 43.4036 12.7969 36.5 12.7969C31.1094 12.7969 26.5158 16.1558 24.7613 20.8633C24.1946 20.738 23.6051 20.6719 23 20.6719C18.5817 20.6719 15 24.1976 15 28.5469C15 28.5701 15.0001 28.5934 15.0003 28.6166C11.6079 29.0941 9 31.966 9 35.4375C9 39.2431 12.134 42.3281 16 42.3281H46C50.9706 42.3281 55 38.3616 55 33.4688C55 29.6113 52.4956 26.3297 49 25.1135Z" fill="#64748B"/>
</g>
<g filter="url(#filter2_ii_4_34911)">
<path fill-rule="evenodd" clip-rule="evenodd" d="M55 33.4688C55 38.3616 50.9706 42.3281 46 42.3281H16C12.134 42.3281 9 39.2431 9 35.4375C9 31.6319 12.134 28.5469 16 28.5469C18.7924 28.5469 21.2029 30.1564 22.3264 32.4844H37.0549C37.5524 28.0547 41.3674 24.6094 46 24.6094C50.9706 24.6094 55 28.5759 55 33.4688Z" fill="#F1F5F9"/>
</g>
<g filter="url(#filter3_f_4_34911)">
<circle cx="16" cy="35.7969" r="5" fill="url(#paint1_linear_4_34911)" style="mix-blend-mode:soft-light"/>
</g>
<g filter="url(#filter4_i_4_34911)">
<ellipse cx="23" cy="28.5469" rx="8" ry="7.875" fill="#F1F5F9"/>
</g>
<g filter="url(#filter5_f_4_34911)">
<ellipse cx="23" cy="27.7969" rx="6" ry="5" fill="url(#paint2_linear_4_34911)" style="mix-blend-mode:soft-light"/>
</g>
<g filter="url(#filter6_f_4_34911)">
<circle cx="47" cy="32.7969" r="5" fill="url(#paint3_linear_4_34911)" style="mix-blend-mode:soft-light"/>
</g>
<g filter="url(#filter7_i_4_34911)">
<ellipse cx="36.5" cy="25.1016" rx="12.5" ry="12.3047" fill="#F1F5F9"/>
</g>
<g filter="url(#filter8_f_4_34911)">
<ellipse cx="36" cy="19.7969" rx="7" ry="5" fill="url(#paint4_linear_4_34911)" style="mix-blend-mode:soft-light"/>
</g>
<g filter="url(#filter9_i_4_34911)">
<ellipse cx="32" cy="32.9766" rx="9" ry="6.39844" fill="url(#paint5_linear_4_34911)"/>
</g>
<g filter="url(#filter10_f_4_34911)">
<ellipse cx="32" cy="33.2969" rx="7" ry="4.5" fill="url(#paint6_linear_4_34911)" style="mix-blend-mode:soft-light"/>
</g>
<path fill-rule="evenodd" clip-rule="evenodd" d="M49 25.1135C49 25.1095 49 25.1055 49 25.1016C49 18.3059 43.4036 12.7969 36.5 12.7969C31.1094 12.7969 26.5158 16.1558 24.7613 20.8633C24.1946 20.738 23.6051 20.6719 23 20.6719C18.5817 20.6719 15 24.1976 15 28.5469C15 28.5701 15.0001 28.5934 15.0003 28.6166C11.6079 29.0941 9 31.966 9 35.4375C9 39.2431 12.134 42.3281 16 42.3281H46C50.9706 42.3281 55 38.3616 55 33.4688C55 29.6113 52.4956 26.3297 49 25.1135Z" fill="#93C5FD" style="mix-blend-mode:color"/>
<path fill-rule="evenodd" clip-rule="evenodd" d="M49 25.1135C49 25.1095 49 25.1055 49 25.1016C49 18.3059 43.4036 12.7969 36.5 12.7969C31.1094 12.7969 26.5158 16.1558 24.7613 20.8633C24.1946 20.738 23.6051 20.6719 23 20.6719C18.5817 20.6719 15 24.1976 15 28.5469C15 28.5701 15.0001 28.5934 15.0003 28.6166C11.6079 29.0941 9 31.966 9 35.4375C9 39.2431 12.134 42.3281 16 42.3281H46C50.9706 42.3281 55 38.3616 55 33.4688C55 29.6113 52.4956 26.3297 49 25.1135Z" fill="#3730A3" style="mix-blend-mode:color"/>
<path fill-rule="evenodd" clip-rule="evenodd" d="M49 25.1135C49 25.1095 49 25.1055 49 25.1016C49 18.3059 43.4036 12.7969 36.5 12.7969C31.1094 12.7969 26.5158 16.1558 24.7613 20.8633C24.1946 20.738 23.6051 20.6719 23 20.6719C18.5817 20.6719 15 24.1976 15 28.5469C15 28.5701 15.0001 28.5934 15.0003 28.6166C11.6079 29.0941 9 31.966 9 35.4375C9 39.2431 12.134 42.3281 16 42.3281H46C50.9706 42.3281 55 38.3616 55 33.4688C55 29.6113 52.4956 26.3297 49 25.1135Z" fill="#4338CA" fill-opacity="0.15" style="mix-blend-mode:multiply"/>
<g filter="url(#filter11_dii_4_34911)">
<path fill-rule="evenodd" clip-rule="evenodd" d="M28.0313 47V48.768L29.5624 47.884C30.0407 47.6079 30.6522 47.7718 30.9284 48.2501C31.2045 48.7284 31.0407 49.3399 30.5624 49.6161L30.561 49.6169L29.0313 50.5001L30.5612 51.3833C30.5616 51.3836 30.562 51.3838 30.5624 51.384C31.0407 51.6602 31.2045 52.2718 30.9284 52.7501C30.6522 53.2284 30.0407 53.3922 29.5624 53.1161L28.0313 52.2321V54C28.0313 54.5523 27.5836 55 27.0313 55C26.479 55 26.0313 54.5523 26.0313 54V52.2321L24.5002 53.1161L24.5002 53.1161L24.5002 53.1161C24.0219 53.3922 23.4103 53.2284 23.1341 52.7501C22.858 52.2718 23.0219 51.6602 23.5002 51.384L23.5035 51.3821L25.0313 50.5001L23.5036 49.6181C23.5025 49.6174 23.5013 49.6167 23.5002 49.6161C23.0219 49.3399 22.858 48.7284 23.1341 48.2501C23.4103 47.7718 24.0219 47.6079 24.5002 47.884C24.5002 47.884 24.5002 47.884 24.5002 47.884L24.5002 47.884L26.0313 48.768V47C26.0313 46.4477 26.479 46 27.0313 46C27.5836 46 28.0313 46.4477 28.0313 47Z" fill="#E2E8F0"/>
</g>
<g style="mix-blend-mode:color">
<path fill-rule="evenodd" clip-rule="evenodd" d="M28.0313 47V48.768L29.5624 47.884C30.0407 47.6079 30.6522 47.7718 30.9284 48.2501C31.2045 48.7284 31.0407 49.3399 30.5624 49.6161L30.561 49.6169L29.0313 50.5001L30.5612 51.3833C30.5616 51.3836 30.562 51.3838 30.5624 51.384C31.0407 51.6602 31.2045 52.2718 30.9284 52.7501C30.6522 53.2284 30.0407 53.3922 29.5624 53.1161L28.0313 52.2321V54C28.0313 54.5523 27.5836 55 27.0313 55C26.479 55 26.0313 54.5523 26.0313 54V52.2321L24.5002 53.1161L24.5002 53.1161L24.5002 53.1161C24.0219 53.3922 23.4103 53.2284 23.1341 52.7501C22.858 52.2718 23.0219 51.6602 23.5002 51.384L23.5035 51.3821L25.0313 50.5001L23.5036 49.6181C23.5025 49.6174 23.5013 49.6167 23.5002 49.6161C23.0219 49.3399 22.858 48.7284 23.1341 48.2501C23.4103 47.7718 24.0219 47.6079 24.5002 47.884C24.5002 47.884 24.5002 47.884 24.5002 47.884L24.5002 47.884L26.0313 48.768V47C26.0313 46.4477 26.479 46 27.0313 46C27.5836 46 28.0313 46.4477 28.0313 47Z" fill="#BFDBFE"/>
</g>
<circle cx="27.0342" cy="47.05" r="0.75" fill="url(#paint7_linear_4_34911)"/>
<circle cx="24.0342" cy="48.75" r="0.75" fill="url(#paint8_linear_4_34911)"/>
<circle cx="24.0342" cy="52.25" r="0.75" fill="url(#paint9_linear_4_34911)"/>
<circle cx="30.0342" cy="48.75" r="0.75" fill="url(#paint10_linear_4_34911)"/>
<circle cx="30.0342" cy="52.25" r="0.75" fill="url(#paint11_linear_4_34911)"/>
<g filter="url(#filter12_dii_4_34911)">
<path fill-rule="evenodd" clip-rule="evenodd" d="M38.0313 47V48.768L39.5624 47.884C40.0407 47.6079 40.6522 47.7718 40.9284 48.2501C41.2045 48.7284 41.0407 49.3399 40.5624 49.6161L40.561 49.6169L39.0313 50.5001L40.5612 51.3833C40.5616 51.3836 40.562 51.3838 40.5624 51.384C41.0407 51.6602 41.2045 52.2718 40.9284 52.7501C40.6522 53.2284 40.0407 53.3922 39.5624 53.1161L38.0313 52.2321V54C38.0313 54.5523 37.5836 55 37.0313 55C36.479 55 36.0313 54.5523 36.0313 54V52.2321L34.5002 53.1161L34.5002 53.1161L34.5002 53.1161C34.0219 53.3922 33.4103 53.2284 33.1341 52.7501C32.858 52.2718 33.0219 51.6602 33.5002 51.384L33.5035 51.3821L35.0313 50.5001L33.5036 49.6181C33.5025 49.6174 33.5013 49.6167 33.5002 49.6161C33.0219 49.3399 32.858 48.7284 33.1341 48.2501C33.4103 47.7718 34.0219 47.6079 34.5002 47.884C34.5002 47.884 34.5002 47.884 34.5002 47.884L34.5002 47.884L36.0313 48.768V47C36.0313 46.4477 36.479 46 37.0313 46C37.5836 46 38.0313 46.4477 38.0313 47Z" fill="#E2E8F0"/>
</g>
<g style="mix-blend-mode:color">
<path fill-rule="evenodd" clip-rule="evenodd" d="M38.0313 47V48.768L39.5624 47.884C40.0407 47.6079 40.6522 47.7718 40.9284 48.2501C41.2045 48.7284 41.0407 49.3399 40.5624 49.6161L40.561 49.6169L39.0313 50.5001L40.5612 51.3833C40.5616 51.3836 40.562 51.3838 40.5624 51.384C41.0407 51.6602 41.2045 52.2718 40.9284 52.7501C40.6522 53.2284 40.0407 53.3922 39.5624 53.1161L38.0313 52.2321V54C38.0313 54.5523 37.5836 55 37.0313 55C36.479 55 36.0313 54.5523 36.0313 54V52.2321L34.5002 53.1161L34.5002 53.1161L34.5002 53.1161C34.0219 53.3922 33.4103 53.2284 33.1341 52.7501C32.858 52.2718 33.0219 51.6602 33.5002 51.384L33.5035 51.3821L35.0313 50.5001L33.5036 49.6181C33.5025 49.6174 33.5013 49.6167 33.5002 49.6161C33.0219 49.3399 32.858 48.7284 33.1341 48.2501C33.4103 47.7718 34.0219 47.6079 34.5002 47.884C34.5002 47.884 34.5002 47.884 34.5002 47.884L34.5002 47.884L36.0313 48.768V47C36.0313 46.4477 36.479 46 37.0313 46C37.5836 46 38.0313 46.4477 38.0313 47Z" fill="#BFDBFE"/>
</g>
<circle cx="37.0342" cy="47.05" r="0.75" fill="url(#paint12_linear_4_34911)"/>
<circle cx="34.0342" cy="48.75" r="0.75" fill="url(#paint13_linear_4_34911)"/>
<circle cx="34.0342" cy="52.25" r="0.75" fill="url(#paint14_linear_4_34911)"/>
<circle cx="40.0342" cy="48.75" r="0.75" fill="url(#paint15_linear_4_34911)"/>
<circle cx="40.0342" cy="52.25" r="0.75" fill="url(#paint16_linear_4_34911)"/>
<defs>
<filter id="filter0_f_4_34911" x="11" y="39.3438" width="40" height="14.8281" filterUnits="userSpaceOnUse" color-interpolation-filters="sRGB">
<feFlood flood-opacity="0" result="BackgroundImageFix"/>
<feBlend mode="normal" in="SourceGraphic" in2="BackgroundImageFix" result="shape"/>
<feGaussianBlur stdDeviation="1" result="effect1_foregroundBlur_4_34911"/>
</filter>
<filter id="filter1_d_4_34911" x="5" y="10.7969" width="54" height="37.5312" filterUnits="userSpaceOnUse" color-interpolation-filters="sRGB">
<feFlood flood-opacity="0" result="BackgroundImageFix"/>
<feColorMatrix in="SourceAlpha" type="matrix" values="0 0 0 0 0 0 0 0 0 0 0 0 0 0 0 0 0 0 127 0" result="hardAlpha"/>
<feOffset dy="2"/>
<feGaussianBlur stdDeviation="2"/>
<feComposite in2="hardAlpha" operator="out"/>
<feColorMatrix type="matrix" values="0 0 0 0 0.278431 0 0 0 0 0.333333 0 0 0 0 0.411765 0 0 0 0.4 0"/>
<feBlend mode="normal" in2="BackgroundImageFix" result="effect1_dropShadow_4_34911"/>
<feBlend mode="normal" in="SourceGraphic" in2="effect1_dropShadow_4_34911" result="shape"/>
</filter>
<filter id="filter2_ii_4_34911" x="9" y="22.6094" width="46" height="21.7188" filterUnits="userSpaceOnUse" color-interpolation-filters="sRGB">
<feFlood flood-opacity="0" result="BackgroundImageFix"/>
<feBlend mode="normal" in="SourceGraphic" in2="BackgroundImageFix" result="shape"/>
<feColorMatrix in="SourceAlpha" type="matrix" values="0 0 0 0 0 0 0 0 0 0 0 0 0 0 0 0 0 0 127 0" result="hardAlpha"/>
<feOffset dy="2"/>
<feGaussianBlur stdDeviation="1"/>
<feComposite in2="hardAlpha" operator="arithmetic" k2="-1" k3="1"/>
<feColorMatrix type="matrix" values="0 0 0 0 0.796078 0 0 0 0 0.835294 0 0 0 0 0.882353 0 0 0 1 0"/>
<feBlend mode="normal" in2="shape" result="effect1_innerShadow_4_34911"/>
<feColorMatrix in="SourceAlpha" type="matrix" values="0 0 0 0 0 0 0 0 0 0 0 0 0 0 0 0 0 0 127 0" result="hardAlpha"/>
<feOffset dy="-2"/>
<feGaussianBlur stdDeviation="1"/>
<feComposite in2="hardAlpha" operator="arithmetic" k2="-1" k3="1"/>
<feColorMatrix type="matrix" values="0 0 0 0 0.796078 0 0 0 0 0.835294 0 0 0 0 0.882353 0 0 0 0.6 0"/>
<feBlend mode="normal" in2="effect1_innerShadow_4_34911" result="effect2_innerShadow_4_34911"/>
</filter>
<filter id="filter3_f_4_34911" x="9" y="28.7969" width="14" height="14" filterUnits="userSpaceOnUse" color-interpolation-filters="sRGB">
<feFlood flood-opacity="0" result="BackgroundImageFix"/>
<feBlend mode="normal" in="SourceGraphic" in2="BackgroundImageFix" result="shape"/>
<feGaussianBlur stdDeviation="1" result="effect1_foregroundBlur_4_34911"/>
</filter>
<filter id="filter4_i_4_34911" x="15" y="20.6719" width="16" height="17.75" filterUnits="userSpaceOnUse" color-interpolation-filters="sRGB">
<feFlood flood-opacity="0" result="BackgroundImageFix"/>
<feBlend mode="normal" in="SourceGraphic" in2="BackgroundImageFix" result="shape"/>
<feColorMatrix in="SourceAlpha" type="matrix" values="0 0 0 0 0 0 0 0 0 0 0 0 0 0 0 0 0 0 127 0" result="hardAlpha"/>
<feOffset dy="2"/>
<feGaussianBlur stdDeviation="1"/>
<feComposite in2="hardAlpha" operator="arithmetic" k2="-1" k3="1"/>
<feColorMatrix type="matrix" values="0 0 0 0 0.796078 0 0 0 0 0.835294 0 0 0 0 0.882353 0 0 0 1 0"/>
<feBlend mode="normal" in2="shape" result="effect1_innerShadow_4_34911"/>
</filter>
<filter id="filter5_f_4_34911" x="15" y="20.7969" width="16" height="14" filterUnits="userSpaceOnUse" color-interpolation-filters="sRGB">
<feFlood flood-opacity="0" result="BackgroundImageFix"/>
<feBlend mode="normal" in="SourceGraphic" in2="BackgroundImageFix" result="shape"/>
<feGaussianBlur stdDeviation="1" result="effect1_foregroundBlur_4_34911"/>
</filter>
<filter id="filter6_f_4_34911" x="40" y="25.7969" width="14" height="14" filterUnits="userSpaceOnUse" color-interpolation-filters="sRGB">
<feFlood flood-opacity="0" result="BackgroundImageFix"/>
<feBlend mode="normal" in="SourceGraphic" in2="BackgroundImageFix" result="shape"/>
<feGaussianBlur stdDeviation="1" result="effect1_foregroundBlur_4_34911"/>
</filter>
<filter id="filter7_i_4_34911" x="24" y="12.7969" width="25" height="26.6094" filterUnits="userSpaceOnUse" color-interpolation-filters="sRGB">
<feFlood flood-opacity="0" result="BackgroundImageFix"/>
<feBlend mode="normal" in="SourceGraphic" in2="BackgroundImageFix" result="shape"/>
<feColorMatrix in="SourceAlpha" type="matrix" values="0 0 0 0 0 0 0 0 0 0 0 0 0 0 0 0 0 0 127 0" result="hardAlpha"/>
<feOffset dy="2"/>
<feGaussianBlur stdDeviation="1"/>
<feComposite in2="hardAlpha" operator="arithmetic" k2="-1" k3="1"/>
<feColorMatrix type="matrix" values="0 0 0 0 0.796078 0 0 0 0 0.835294 0 0 0 0 0.882353 0 0 0 1 0"/>
<feBlend mode="normal" in2="shape" result="effect1_innerShadow_4_34911"/>
</filter>
<filter id="filter8_f_4_34911" x="27" y="12.7969" width="18" height="14" filterUnits="userSpaceOnUse" color-interpolation-filters="sRGB">
<feFlood flood-opacity="0" result="BackgroundImageFix"/>
<feBlend mode="normal" in="SourceGraphic" in2="BackgroundImageFix" result="shape"/>
<feGaussianBlur stdDeviation="1" result="effect1_foregroundBlur_4_34911"/>
</filter>
<filter id="filter9_i_4_34911" x="23" y="26.5781" width="18" height="14.7969" filterUnits="userSpaceOnUse" color-interpolation-filters="sRGB">
<feFlood flood-opacity="0" result="BackgroundImageFix"/>
<feBlend mode="normal" in="SourceGraphic" in2="BackgroundImageFix" result="shape"/>
<feColorMatrix in="SourceAlpha" type="matrix" values="0 0 0 0 0 0 0 0 0 0 0 0 0 0 0 0 0 0 127 0" result="hardAlpha"/>
<feOffset dy="2"/>
<feGaussianBlur stdDeviation="1"/>
<feComposite in2="hardAlpha" operator="arithmetic" k2="-1" k3="1"/>
<feColorMatrix type="matrix" values="0 0 0 0 0.796078 0 0 0 0 0.835294 0 0 0 0 0.882353 0 0 0 0.6 0"/>
<feBlend mode="normal" in2="shape" result="effect1_innerShadow_4_34911"/>
</filter>
<filter id="filter10_f_4_34911" x="23" y="26.7969" width="18" height="13" filterUnits="userSpaceOnUse" color-interpolation-filters="sRGB">
<feFlood flood-opacity="0" result="BackgroundImageFix"/>
<feBlend mode="normal" in="SourceGraphic" in2="BackgroundImageFix" result="shape"/>
<feGaussianBlur stdDeviation="1" result="effect1_foregroundBlur_4_34911"/>
</filter>
<filter id="filter11_dii_4_34911" x="20" y="44" width="14.0625" height="15" filterUnits="userSpaceOnUse" color-interpolation-filters="sRGB">
<feFlood flood-opacity="0" result="BackgroundImageFix"/>
<feColorMatrix in="SourceAlpha" type="matrix" values="0 0 0 0 0 0 0 0 0 0 0 0 0 0 0 0 0 0 127 0" result="hardAlpha"/>
<feOffset dy="1"/>
<feGaussianBlur stdDeviation="1.5"/>
<feComposite in2="hardAlpha" operator="out"/>
<feColorMatrix type="matrix" values="0 0 0 0 0.278431 0 0 0 0 0.333333 0 0 0 0 0.411765 0 0 0 0.3 0"/>
<feBlend mode="normal" in2="BackgroundImageFix" result="effect1_dropShadow_4_34911"/>
<feBlend mode="normal" in="SourceGraphic" in2="effect1_dropShadow_4_34911" result="shape"/>
<feColorMatrix in="SourceAlpha" type="matrix" values="0 0 0 0 0 0 0 0 0 0 0 0 0 0 0 0 0 0 127 0" result="hardAlpha"/>
<feOffset dy="0.5"/>
<feGaussianBlur stdDeviation="0.25"/>
<feComposite in2="hardAlpha" operator="arithmetic" k2="-1" k3="1"/>
<feColorMatrix type="matrix" values="0 0 0 0 0.580392 0 0 0 0 0.639216 0 0 0 0 0.721569 0 0 0 1 0"/>
<feBlend mode="normal" in2="shape" result="effect2_innerShadow_4_34911"/>
<feColorMatrix in="SourceAlpha" type="matrix" values="0 0 0 0 0 0 0 0 0 0 0 0 0 0 0 0 0 0 127 0" result="hardAlpha"/>
<feOffset dy="-0.5"/>
<feGaussianBlur stdDeviation="0.25"/>
<feComposite in2="hardAlpha" operator="arithmetic" k2="-1" k3="1"/>
<feColorMatrix type="matrix" values="0 0 0 0 0.580392 0 0 0 0 0.639216 0 0 0 0 0.721569 0 0 0 1 0"/>
<feBlend mode="normal" in2="effect2_innerShadow_4_34911" result="effect3_innerShadow_4_34911"/>
</filter>
<filter id="filter12_dii_4_34911" x="30" y="44" width="14.0625" height="15" filterUnits="userSpaceOnUse" color-interpolation-filters="sRGB">
<feFlood flood-opacity="0" result="BackgroundImageFix"/>
<feColorMatrix in="SourceAlpha" type="matrix" values="0 0 0 0 0 0 0 0 0 0 0 0 0 0 0 0 0 0 127 0" result="hardAlpha"/>
<feOffset dy="1"/>
<feGaussianBlur stdDeviation="1.5"/>
<feComposite in2="hardAlpha" operator="out"/>
<feColorMatrix type="matrix" values="0 0 0 0 0.278431 0 0 0 0 0.333333 0 0 0 0 0.411765 0 0 0 0.3 0"/>
<feBlend mode="normal" in2="BackgroundImageFix" result="effect1_dropShadow_4_34911"/>
<feBlend mode="normal" in="SourceGraphic" in2="effect1_dropShadow_4_34911" result="shape"/>
<feColorMatrix in="SourceAlpha" type="matrix" values="0 0 0 0 0 0 0 0 0 0 0 0 0 0 0 0 0 0 127 0" result="hardAlpha"/>
<feOffset dy="0.5"/>
<feGaussianBlur stdDeviation="0.25"/>
<feComposite in2="hardAlpha" operator="arithmetic" k2="-1" k3="1"/>
<feColorMatrix type="matrix" values="0 0 0 0 0.580392 0 0 0 0 0.639216 0 0 0 0 0.721569 0 0 0 1 0"/>
<feBlend mode="normal" in2="shape" result="effect2_innerShadow_4_34911"/>
<feColorMatrix in="SourceAlpha" type="matrix" values="0 0 0 0 0 0 0 0 0 0 0 0 0 0 0 0 0 0 127 0" result="hardAlpha"/>
<feOffset dy="-0.5"/>
<feGaussianBlur stdDeviation="0.25"/>
<feComposite in2="hardAlpha" operator="arithmetic" k2="-1" k3="1"/>
<feColorMatrix type="matrix" values="0 0 0 0 0.580392 0 0 0 0 0.639216 0 0 0 0 0.721569 0 0 0 1 0"/>
<feBlend mode="normal" in2="effect2_innerShadow_4_34911" result="effect3_innerShadow_4_34911"/>
</filter>
<linearGradient id="paint0_linear_4_34911" x1="31" y1="41.3438" x2="31" y2="52.1719" gradientUnits="userSpaceOnUse">
<stop stop-color="#A5B4FC"/>
<stop offset="1" stop-color="#818CF8" stop-opacity="0"/>
</linearGradient>
<linearGradient id="paint1_linear_4_34911" x1="16" y1="30.7969" x2="16" y2="40.7969" gradientUnits="userSpaceOnUse">
<stop stop-color="white"/>
<stop offset="1" stop-color="#F3F3F3" stop-opacity="0.2"/>
</linearGradient>
<linearGradient id="paint2_linear_4_34911" x1="23" y1="22.7969" x2="23" y2="32.7969" gradientUnits="userSpaceOnUse">
<stop stop-color="white"/>
<stop offset="1" stop-color="#F3F3F3" stop-opacity="0.2"/>
</linearGradient>
<linearGradient id="paint3_linear_4_34911" x1="47" y1="27.7969" x2="47" y2="37.7969" gradientUnits="userSpaceOnUse">
<stop stop-color="white"/>
<stop offset="1" stop-color="#F3F3F3" stop-opacity="0.2"/>
</linearGradient>
<linearGradient id="paint4_linear_4_34911" x1="36" y1="14.7969" x2="36" y2="24.7969" gradientUnits="userSpaceOnUse">
<stop stop-color="white"/>
<stop offset="1" stop-color="#F3F3F3" stop-opacity="0.2"/>
</linearGradient>
<linearGradient id="paint5_linear_4_34911" x1="32" y1="26.5781" x2="32" y2="39.375" gradientUnits="userSpaceOnUse">
<stop stop-color="#F1F5F9"/>
<stop offset="0.650321" stop-color="#F1F5F9" stop-opacity="0"/>
</linearGradient>
<linearGradient id="paint6_linear_4_34911" x1="32" y1="28.7969" x2="32" y2="37.7969" gradientUnits="userSpaceOnUse">
<stop stop-color="white"/>
<stop offset="1" stop-color="#F3F3F3" stop-opacity="0.2"/>
</linearGradient>
<linearGradient id="paint7_linear_4_34911" x1="27.0342" y1="46.3" x2="27.0342" y2="47.8" gradientUnits="userSpaceOnUse">
<stop stop-color="#E2E8F0"/>
<stop offset="1" stop-color="#E2E8F0" stop-opacity="0"/>
</linearGradient>
<linearGradient id="paint8_linear_4_34911" x1="24.0342" y1="48" x2="24.0342" y2="49.5" gradientUnits="userSpaceOnUse">
<stop stop-color="#E2E8F0"/>
<stop offset="1" stop-color="#E2E8F0" stop-opacity="0"/>
</linearGradient>
<linearGradient id="paint9_linear_4_34911" x1="24.0342" y1="51.5" x2="24.0342" y2="53" gradientUnits="userSpaceOnUse">
<stop stop-color="#E2E8F0"/>
<stop offset="1" stop-color="#E2E8F0" stop-opacity="0"/>
</linearGradient>
<linearGradient id="paint10_linear_4_34911" x1="30.0342" y1="48" x2="30.0342" y2="49.5" gradientUnits="userSpaceOnUse">
<stop stop-color="#E2E8F0"/>
<stop offset="1" stop-color="#E2E8F0" stop-opacity="0"/>
</linearGradient>
<linearGradient id="paint11_linear_4_34911" x1="30.0342" y1="51.5" x2="30.0342" y2="53" gradientUnits="userSpaceOnUse">
<stop stop-color="#E2E8F0"/>
<stop offset="1" stop-color="#E2E8F0" stop-opacity="0"/>
</linearGradient>
<linearGradient id="paint12_linear_4_34911" x1="37.0342" y1="46.3" x2="37.0342" y2="47.8" gradientUnits="userSpaceOnUse">
<stop stop-color="#E2E8F0"/>
<stop offset="1" stop-color="#E2E8F0" stop-opacity="0"/>
</linearGradient>
<linearGradient id="paint13_linear_4_34911" x1="34.0342" y1="48" x2="34.0342" y2="49.5" gradientUnits="userSpaceOnUse">
<stop stop-color="#E2E8F0"/>
<stop offset="1" stop-color="#E2E8F0" stop-opacity="0"/>
</linearGradient>
<linearGradient id="paint14_linear_4_34911" x1="34.0342" y1="51.5" x2="34.0342" y2="53" gradientUnits="userSpaceOnUse">
<stop stop-color="#E2E8F0"/>
<stop offset="1" stop-color="#E2E8F0" stop-opacity="0"/>
</linearGradient>
<linearGradient id="paint15_linear_4_34911" x1="40.0342" y1="48" x2="40.0342" y2="49.5" gradientUnits="userSpaceOnUse">
<stop stop-color="#E2E8F0"/>
<stop offset="1" stop-color="#E2E8F0" stop-opacity="0"/>
</linearGradient>
<linearGradient id="paint16_linear_4_34911" x1="40.0342" y1="51.5" x2="40.0342" y2="53" gradientUnits="userSpaceOnUse">
<stop stop-color="#E2E8F0"/>
<stop offset="1" stop-color="#E2E8F0" stop-opacity="0"/>
</linearGradient>
</defs>
</svg>
