<svg width="64" height="63" viewBox="0 0 64 63" fill="none" xmlns="http://www.w3.org/2000/svg">
<g filter="url(#filter0_f_4_34916)">
<path d="M17.0645 46.9932C16.1355 43.2269 13.9677 41.6576 13 41.3438H49C47.4516 43.07 45.5161 45.4867 45.5161 46.9932C45.5161 48.4997 45.9032 51.0734 46.6774 52.1719H15.9032C16.6774 52.0149 17.9935 50.7595 17.0645 46.9932Z" fill="url(#paint0_linear_4_34916)"/>
</g>
<g filter="url(#filter1_d_4_34916)">
<path fill-rule="evenodd" clip-rule="evenodd" d="M49 25.1135C49 25.1095 49 25.1055 49 25.1016C49 18.3059 43.4036 12.7969 36.5 12.7969C31.1094 12.7969 26.5158 16.1558 24.7613 20.8633C24.1946 20.738 23.6051 20.6719 23 20.6719C18.5817 20.6719 15 24.1976 15 28.5469C15 28.5701 15.0001 28.5934 15.0003 28.6166C11.6079 29.0941 9 31.966 9 35.4375C9 39.2431 12.134 42.3281 16 42.3281H46C50.9706 42.3281 55 38.3616 55 33.4688C55 29.6113 52.4956 26.3297 49 25.1135Z" fill="#64748B"/>
</g>
<g filter="url(#filter2_ii_4_34916)">
<path fill-rule="evenodd" clip-rule="evenodd" d="M55 33.4688C55 38.3616 50.9706 42.3281 46 42.3281H16C12.134 42.3281 9 39.2431 9 35.4375C9 31.6319 12.134 28.5469 16 28.5469C18.7924 28.5469 21.2029 30.1564 22.3264 32.4844H37.0549C37.5524 28.0547 41.3674 24.6094 46 24.6094C50.9706 24.6094 55 28.5759 55 33.4688Z" fill="#F1F5F9"/>
</g>
<g filter="url(#filter3_f_4_34916)">
<circle cx="16" cy="35.7969" r="5" fill="url(#paint1_linear_4_34916)" style="mix-blend-mode:soft-light"/>
</g>
<g filter="url(#filter4_i_4_34916)">
<ellipse cx="23" cy="28.5469" rx="8" ry="7.875" fill="#F1F5F9"/>
</g>
<g filter="url(#filter5_f_4_34916)">
<ellipse cx="23" cy="27.7969" rx="6" ry="5" fill="url(#paint2_linear_4_34916)" style="mix-blend-mode:soft-light"/>
</g>
<g filter="url(#filter6_f_4_34916)">
<circle cx="47" cy="32.7969" r="5" fill="url(#paint3_linear_4_34916)" style="mix-blend-mode:soft-light"/>
</g>
<g filter="url(#filter7_i_4_34916)">
<ellipse cx="36.5" cy="25.1016" rx="12.5" ry="12.3047" fill="#F1F5F9"/>
</g>
<g filter="url(#filter8_f_4_34916)">
<ellipse cx="36" cy="19.7969" rx="7" ry="5" fill="url(#paint4_linear_4_34916)" style="mix-blend-mode:soft-light"/>
</g>
<g filter="url(#filter9_i_4_34916)">
<ellipse cx="32" cy="32.9766" rx="9" ry="6.39844" fill="url(#paint5_linear_4_34916)"/>
</g>
<g filter="url(#filter10_f_4_34916)">
<ellipse cx="32" cy="33.2969" rx="7" ry="4.5" fill="url(#paint6_linear_4_34916)" style="mix-blend-mode:soft-light"/>
</g>
<path fill-rule="evenodd" clip-rule="evenodd" d="M49 25.1135C49 25.1095 49 25.1055 49 25.1016C49 18.3059 43.4036 12.7969 36.5 12.7969C31.1094 12.7969 26.5158 16.1558 24.7613 20.8633C24.1946 20.738 23.6051 20.6719 23 20.6719C18.5817 20.6719 15 24.1976 15 28.5469C15 28.5701 15.0001 28.5934 15.0003 28.6166C11.6079 29.0941 9 31.966 9 35.4375C9 39.2431 12.134 42.3281 16 42.3281H46C50.9706 42.3281 55 38.3616 55 33.4688C55 29.6113 52.4956 26.3297 49 25.1135Z" fill="#93C5FD" style="mix-blend-mode:color"/>
<path fill-rule="evenodd" clip-rule="evenodd" d="M49 25.1135C49 25.1095 49 25.1055 49 25.1016C49 18.3059 43.4036 12.7969 36.5 12.7969C31.1094 12.7969 26.5158 16.1558 24.7613 20.8633C24.1946 20.738 23.6051 20.6719 23 20.6719C18.5817 20.6719 15 24.1976 15 28.5469C15 28.5701 15.0001 28.5934 15.0003 28.6166C11.6079 29.0941 9 31.966 9 35.4375C9 39.2431 12.134 42.3281 16 42.3281H46C50.9706 42.3281 55 38.3616 55 33.4688C55 29.6113 52.4956 26.3297 49 25.1135Z" fill="#3730A3" style="mix-blend-mode:color"/>
<path fill-rule="evenodd" clip-rule="evenodd" d="M49 25.1135C49 25.1095 49 25.1055 49 25.1016C49 18.3059 43.4036 12.7969 36.5 12.7969C31.1094 12.7969 26.5158 16.1558 24.7613 20.8633C24.1946 20.738 23.6051 20.6719 23 20.6719C18.5817 20.6719 15 24.1976 15 28.5469C15 28.5701 15.0001 28.5934 15.0003 28.6166C11.6079 29.0941 9 31.966 9 35.4375C9 39.2431 12.134 42.3281 16 42.3281H46C50.9706 42.3281 55 38.3616 55 33.4688C55 29.6113 52.4956 26.3297 49 25.1135Z" fill="#4338CA" fill-opacity="0.15" style="mix-blend-mode:multiply"/>
<g filter="url(#filter11_ii_4_34916)">
<path d="M32.2858 46.5172L34.9271 49.4454L33.6715 53.1612L29.7747 53.9487L27.1335 51.0205L28.389 47.3047L32.2858 46.5172Z" fill="#E7F2FF"/>
</g>
<path d="M28.6335 47.5802L32.168 46.8659L34.5637 49.5219L33.4271 52.8857L29.8926 53.6L27.4968 50.944L28.6335 47.5802Z" stroke="#93C5FD" stroke-width="0.639516"/>
<defs>
<filter id="filter0_f_4_34916" x="11" y="39.3438" width="40" height="14.8281" filterUnits="userSpaceOnUse" color-interpolation-filters="sRGB">
<feFlood flood-opacity="0" result="BackgroundImageFix"/>
<feBlend mode="normal" in="SourceGraphic" in2="BackgroundImageFix" result="shape"/>
<feGaussianBlur stdDeviation="1" result="effect1_foregroundBlur_4_34916"/>
</filter>
<filter id="filter1_d_4_34916" x="5" y="10.7969" width="54" height="37.5312" filterUnits="userSpaceOnUse" color-interpolation-filters="sRGB">
<feFlood flood-opacity="0" result="BackgroundImageFix"/>
<feColorMatrix in="SourceAlpha" type="matrix" values="0 0 0 0 0 0 0 0 0 0 0 0 0 0 0 0 0 0 127 0" result="hardAlpha"/>
<feOffset dy="2"/>
<feGaussianBlur stdDeviation="2"/>
<feComposite in2="hardAlpha" operator="out"/>
<feColorMatrix type="matrix" values="0 0 0 0 0.278431 0 0 0 0 0.333333 0 0 0 0 0.411765 0 0 0 0.4 0"/>
<feBlend mode="normal" in2="BackgroundImageFix" result="effect1_dropShadow_4_34916"/>
<feBlend mode="normal" in="SourceGraphic" in2="effect1_dropShadow_4_34916" result="shape"/>
</filter>
<filter id="filter2_ii_4_34916" x="9" y="22.6094" width="46" height="21.7188" filterUnits="userSpaceOnUse" color-interpolation-filters="sRGB">
<feFlood flood-opacity="0" result="BackgroundImageFix"/>
<feBlend mode="normal" in="SourceGraphic" in2="BackgroundImageFix" result="shape"/>
<feColorMatrix in="SourceAlpha" type="matrix" values="0 0 0 0 0 0 0 0 0 0 0 0 0 0 0 0 0 0 127 0" result="hardAlpha"/>
<feOffset dy="2"/>
<feGaussianBlur stdDeviation="1"/>
<feComposite in2="hardAlpha" operator="arithmetic" k2="-1" k3="1"/>
<feColorMatrix type="matrix" values="0 0 0 0 0.796078 0 0 0 0 0.835294 0 0 0 0 0.882353 0 0 0 1 0"/>
<feBlend mode="normal" in2="shape" result="effect1_innerShadow_4_34916"/>
<feColorMatrix in="SourceAlpha" type="matrix" values="0 0 0 0 0 0 0 0 0 0 0 0 0 0 0 0 0 0 127 0" result="hardAlpha"/>
<feOffset dy="-2"/>
<feGaussianBlur stdDeviation="1"/>
<feComposite in2="hardAlpha" operator="arithmetic" k2="-1" k3="1"/>
<feColorMatrix type="matrix" values="0 0 0 0 0.796078 0 0 0 0 0.835294 0 0 0 0 0.882353 0 0 0 0.6 0"/>
<feBlend mode="normal" in2="effect1_innerShadow_4_34916" result="effect2_innerShadow_4_34916"/>
</filter>
<filter id="filter3_f_4_34916" x="9" y="28.7969" width="14" height="14" filterUnits="userSpaceOnUse" color-interpolation-filters="sRGB">
<feFlood flood-opacity="0" result="BackgroundImageFix"/>
<feBlend mode="normal" in="SourceGraphic" in2="BackgroundImageFix" result="shape"/>
<feGaussianBlur stdDeviation="1" result="effect1_foregroundBlur_4_34916"/>
</filter>
<filter id="filter4_i_4_34916" x="15" y="20.6719" width="16" height="17.75" filterUnits="userSpaceOnUse" color-interpolation-filters="sRGB">
<feFlood flood-opacity="0" result="BackgroundImageFix"/>
<feBlend mode="normal" in="SourceGraphic" in2="BackgroundImageFix" result="shape"/>
<feColorMatrix in="SourceAlpha" type="matrix" values="0 0 0 0 0 0 0 0 0 0 0 0 0 0 0 0 0 0 127 0" result="hardAlpha"/>
<feOffset dy="2"/>
<feGaussianBlur stdDeviation="1"/>
<feComposite in2="hardAlpha" operator="arithmetic" k2="-1" k3="1"/>
<feColorMatrix type="matrix" values="0 0 0 0 0.796078 0 0 0 0 0.835294 0 0 0 0 0.882353 0 0 0 1 0"/>
<feBlend mode="normal" in2="shape" result="effect1_innerShadow_4_34916"/>
</filter>
<filter id="filter5_f_4_34916" x="15" y="20.7969" width="16" height="14" filterUnits="userSpaceOnUse" color-interpolation-filters="sRGB">
<feFlood flood-opacity="0" result="BackgroundImageFix"/>
<feBlend mode="normal" in="SourceGraphic" in2="BackgroundImageFix" result="shape"/>
<feGaussianBlur stdDeviation="1" result="effect1_foregroundBlur_4_34916"/>
</filter>
<filter id="filter6_f_4_34916" x="40" y="25.7969" width="14" height="14" filterUnits="userSpaceOnUse" color-interpolation-filters="sRGB">
<feFlood flood-opacity="0" result="BackgroundImageFix"/>
<feBlend mode="normal" in="SourceGraphic" in2="BackgroundImageFix" result="shape"/>
<feGaussianBlur stdDeviation="1" result="effect1_foregroundBlur_4_34916"/>
</filter>
<filter id="filter7_i_4_34916" x="24" y="12.7969" width="25" height="26.6094" filterUnits="userSpaceOnUse" color-interpolation-filters="sRGB">
<feFlood flood-opacity="0" result="BackgroundImageFix"/>
<feBlend mode="normal" in="SourceGraphic" in2="BackgroundImageFix" result="shape"/>
<feColorMatrix in="SourceAlpha" type="matrix" values="0 0 0 0 0 0 0 0 0 0 0 0 0 0 0 0 0 0 127 0" result="hardAlpha"/>
<feOffset dy="2"/>
<feGaussianBlur stdDeviation="1"/>
<feComposite in2="hardAlpha" operator="arithmetic" k2="-1" k3="1"/>
<feColorMatrix type="matrix" values="0 0 0 0 0.796078 0 0 0 0 0.835294 0 0 0 0 0.882353 0 0 0 1 0"/>
<feBlend mode="normal" in2="shape" result="effect1_innerShadow_4_34916"/>
</filter>
<filter id="filter8_f_4_34916" x="27" y="12.7969" width="18" height="14" filterUnits="userSpaceOnUse" color-interpolation-filters="sRGB">
<feFlood flood-opacity="0" result="BackgroundImageFix"/>
<feBlend mode="normal" in="SourceGraphic" in2="BackgroundImageFix" result="shape"/>
<feGaussianBlur stdDeviation="1" result="effect1_foregroundBlur_4_34916"/>
</filter>
<filter id="filter9_i_4_34916" x="23" y="26.5781" width="18" height="14.7969" filterUnits="userSpaceOnUse" color-interpolation-filters="sRGB">
<feFlood flood-opacity="0" result="BackgroundImageFix"/>
<feBlend mode="normal" in="SourceGraphic" in2="BackgroundImageFix" result="shape"/>
<feColorMatrix in="SourceAlpha" type="matrix" values="0 0 0 0 0 0 0 0 0 0 0 0 0 0 0 0 0 0 127 0" result="hardAlpha"/>
<feOffset dy="2"/>
<feGaussianBlur stdDeviation="1"/>
<feComposite in2="hardAlpha" operator="arithmetic" k2="-1" k3="1"/>
<feColorMatrix type="matrix" values="0 0 0 0 0.796078 0 0 0 0 0.835294 0 0 0 0 0.882353 0 0 0 0.6 0"/>
<feBlend mode="normal" in2="shape" result="effect1_innerShadow_4_34916"/>
</filter>
<filter id="filter10_f_4_34916" x="23" y="26.7969" width="18" height="13" filterUnits="userSpaceOnUse" color-interpolation-filters="sRGB">
<feFlood flood-opacity="0" result="BackgroundImageFix"/>
<feBlend mode="normal" in="SourceGraphic" in2="BackgroundImageFix" result="shape"/>
<feGaussianBlur stdDeviation="1" result="effect1_foregroundBlur_4_34916"/>
</filter>
<filter id="filter11_ii_4_34916" x="27.1335" y="45.4514" width="7.79358" height="8.49732" filterUnits="userSpaceOnUse" color-interpolation-filters="sRGB">
<feFlood flood-opacity="0" result="BackgroundImageFix"/>
<feBlend mode="normal" in="SourceGraphic" in2="BackgroundImageFix" result="shape"/>
<feColorMatrix in="SourceAlpha" type="matrix" values="0 0 0 0 0 0 0 0 0 0 0 0 0 0 0 0 0 0 127 0" result="hardAlpha"/>
<feOffset dy="-2.13172"/>
<feComposite in2="hardAlpha" operator="arithmetic" k2="-1" k3="1"/>
<feColorMatrix type="matrix" values="0 0 0 0 0.9375 0 0 0 0 0.966981 0 0 0 0 1 0 0 0 1 0"/>
<feBlend mode="normal" in2="shape" result="effect1_innerShadow_4_34916"/>
<feColorMatrix in="SourceAlpha" type="matrix" values="0 0 0 0 0 0 0 0 0 0 0 0 0 0 0 0 0 0 127 0" result="hardAlpha"/>
<feOffset dy="-1.06586"/>
<feGaussianBlur stdDeviation="0.53293"/>
<feComposite in2="hardAlpha" operator="arithmetic" k2="-1" k3="1"/>
<feColorMatrix type="matrix" values="0 0 0 0 0.647292 0 0 0 0 0.811695 0 0 0 0 0.995833 0 0 0 1 0"/>
<feBlend mode="normal" in2="effect1_innerShadow_4_34916" result="effect2_innerShadow_4_34916"/>
</filter>
<linearGradient id="paint0_linear_4_34916" x1="31" y1="41.3438" x2="31" y2="52.1719" gradientUnits="userSpaceOnUse">
<stop stop-color="#A5B4FC"/>
<stop offset="1" stop-color="#818CF8" stop-opacity="0"/>
</linearGradient>
<linearGradient id="paint1_linear_4_34916" x1="16" y1="30.7969" x2="16" y2="40.7969" gradientUnits="userSpaceOnUse">
<stop stop-color="white"/>
<stop offset="1" stop-color="#F3F3F3" stop-opacity="0.2"/>
</linearGradient>
<linearGradient id="paint2_linear_4_34916" x1="23" y1="22.7969" x2="23" y2="32.7969" gradientUnits="userSpaceOnUse">
<stop stop-color="white"/>
<stop offset="1" stop-color="#F3F3F3" stop-opacity="0.2"/>
</linearGradient>
<linearGradient id="paint3_linear_4_34916" x1="47" y1="27.7969" x2="47" y2="37.7969" gradientUnits="userSpaceOnUse">
<stop stop-color="white"/>
<stop offset="1" stop-color="#F3F3F3" stop-opacity="0.2"/>
</linearGradient>
<linearGradient id="paint4_linear_4_34916" x1="36" y1="14.7969" x2="36" y2="24.7969" gradientUnits="userSpaceOnUse">
<stop stop-color="white"/>
<stop offset="1" stop-color="#F3F3F3" stop-opacity="0.2"/>
</linearGradient>
<linearGradient id="paint5_linear_4_34916" x1="32" y1="26.5781" x2="32" y2="39.375" gradientUnits="userSpaceOnUse">
<stop stop-color="#F1F5F9"/>
<stop offset="0.650321" stop-color="#F1F5F9" stop-opacity="0"/>
</linearGradient>
<linearGradient id="paint6_linear_4_34916" x1="32" y1="28.7969" x2="32" y2="37.7969" gradientUnits="userSpaceOnUse">
<stop stop-color="white"/>
<stop offset="1" stop-color="#F3F3F3" stop-opacity="0.2"/>
</linearGradient>
</defs>
</svg>
